<svg xmlns="http://www.w3.org/2000/svg" viewBox="0 0 24 30" fill="none" x="0px" y="0px"><path fill-rule="evenodd" clip-rule="evenodd" d="M15.6 12C15.6 13.9882 13.9882 15.6 12 15.6C10.0118 15.6 8.4 13.9882 8.4 12C8.4 10.0118 10.0118 8.40002 12 8.40002C13.9882 8.40002 15.6 10.0118 15.6 12ZM14.6 12C14.6 13.436 13.4359 14.6 12 14.6C10.5641 14.6 9.4 13.436 9.4 12C9.4 10.5641 10.5641 9.40002 12 9.40002C13.4359 9.40002 14.6 10.5641 14.6 12Z" fill="black"/><path fill-rule="evenodd" clip-rule="evenodd" d="M10.4916 3.3392L9.53288 5.27078C9.43287 5.47228 9.19944 5.56897 8.98624 5.49721L6.94314 4.80948C6.78928 4.75769 6.61928 4.78308 6.49097 4.88254C5.88952 5.34875 5.34875 5.88952 4.88254 6.49097C4.78308 6.61928 4.75769 6.78928 4.80948 6.94314L5.49721 8.98624C5.56897 9.19944 5.47228 9.43287 5.27078 9.53288L3.3392 10.4916C3.19371 10.5638 3.09142 10.702 3.07111 10.8632C3.02418 11.2355 3 11.6149 3 12C3 12.3851 3.02418 12.7645 3.07111 13.1368C3.09142 13.2979 3.19371 13.4362 3.3392 13.5084L5.27078 14.4671C5.47228 14.5671 5.56897 14.8006 5.49721 15.0138L4.80948 17.0569C4.75769 17.2107 4.78308 17.3807 4.88254 17.509C5.34875 18.1105 5.88952 18.6512 6.49097 19.1175C6.61928 19.2169 6.78928 19.2423 6.94314 19.1905L8.98624 18.5028C9.19944 18.431 9.43287 18.5277 9.53288 18.7292L10.4916 20.6608C10.5638 20.8063 10.702 20.9086 10.8632 20.9289C11.2355 20.9758 11.6149 21 12 21C12.3851 21 12.7645 20.9758 13.1368 20.9289C13.2979 20.9086 13.4362 20.8063 13.5084 20.6608L14.4671 18.7292C14.5671 18.5277 14.8006 18.431 15.0138 18.5028L17.0569 19.1905C17.2107 19.2423 17.3807 19.2169 17.509 19.1175C18.1105 18.6512 18.6512 18.1105 19.1175 17.509C19.2169 17.3807 19.2423 17.2107 19.1905 17.0569L18.5028 15.0138C18.431 14.8006 18.5277 14.5671 18.7292 14.4671L20.6608 13.5084C20.8063 13.4362 20.9086 13.2979 20.9289 13.1368C20.9758 12.7645 21 12.3851 21 12C21 11.6149 20.9758 11.2355 20.9289 10.8632C20.9086 10.702 20.8063 10.5638 20.6608 10.4916L18.7292 9.53288C18.5277 9.43287 18.431 9.19944 18.5028 8.98624L19.1905 6.94314C19.2423 6.78928 19.2169 6.61928 19.1175 6.49097C18.6512 5.88952 18.1105 5.34875 17.509 4.88254C17.3807 4.78308 17.2107 4.75769 17.0569 4.80948L15.0138 5.49721C14.8006 5.56897 14.5671 5.47228 14.4671 5.27078L13.5084 3.3392C13.4362 3.19371 13.2979 3.09142 13.1368 3.07111C12.7645 3.02418 12.3851 3 12 3C11.6149 3 11.2355 3.02418 10.8632 3.07111C10.702 3.09142 10.5638 3.19371 10.4916 3.3392ZM17.555 8.66722C17.3238 9.35418 17.6354 10.1064 18.2846 10.4286L19.9666 11.2634C19.9887 11.5058 20 11.7514 20 12C20 12.2486 19.9887 12.4942 19.9666 12.7366L18.2846 13.5714C17.6354 13.8936 17.3238 14.6458 17.555 15.3328L18.1539 17.112C17.8393 17.4904 17.4904 17.8393 17.112 18.1539L15.3328 17.555C14.6458 17.3238 13.8936 17.6354 13.5714 18.2846L12.7366 19.9666C12.4942 19.9887 12.2486 20 12 20C11.7514 20 11.5058 19.9887 11.2634 19.9666L10.4286 18.2846C10.1064 17.6354 9.35418 17.3238 8.66722 17.555L6.88799 18.1539C6.50964 17.8393 6.16073 17.4904 5.84605 17.112L6.44496 15.3328C6.67619 14.6458 6.36463 13.8936 5.71536 13.5714L4.03339 12.7366C4.01131 12.4942 4 12.2486 4 12C4 11.7514 4.01131 11.5058 4.03339 11.2634L5.71536 10.4286C6.36463 10.1064 6.67619 9.35418 6.44496 8.66722L5.84605 6.88799C6.16073 6.50964 6.50964 6.16073 6.88799 5.84605L8.66722 6.44496C9.35418 6.6762 10.1064 6.36463 10.4286 5.71536L11.2634 4.03339C11.5058 4.01131 11.7514 4 12 4C12.2486 4 12.4942 4.01131 12.7366 4.03339L13.5714 5.71536C13.8936 6.36462 14.6458 6.6762 15.3328 6.44496L17.112 5.84605C17.4904 6.16073 17.8393 6.50964 18.1539 6.88799L17.555 8.66722Z" fill="black"/><text x="0" y="39" fill="#000000" font-size="5px" font-weight="bold" font-family="'Helvetica Neue', Helvetica, Arial-Unicode, Arial, Sans-serif">Created by Bingge Liu</text><text x="0" y="44" fill="#000000" font-size="5px" font-weight="bold" font-family="'Helvetica Neue', Helvetica, Arial-Unicode, Arial, Sans-serif">from the Noun Project</text></svg>